# AST/ASF file generated using VICON BodyLanguage
# -----------------------------------------------
:version 1.10
:name VICON
:units
  mass 1.0
  length 0.45
  angle deg
:documentation
   .ast/.asf automatically generated from VICON data using
   VICON BodyBuilder and BodyLanguage model FoxedUp or BRILLIANT.MOD
:root
   order TX TY TZ RX RY RZ
   axis XYZ
   position 0 0 0  
   orientation 0 0 0 
:bonedata
  begin
     id 1 
     name lhipjoint
     direction 0.714689 -0.624256 0.315473 
     length 2.45343 
     axis 0 0 0  XYZ
  end
  begin
     id 2 
     name lfemur
     direction 0.34202 -0.939693 0  
     length 6.59069  
     axis 0 0 20  XYZ
    dof rx ry rz
    limits (-160.0 20.0)
           (-70.0 70.0)
           (-60.0 70.0)
  end
  begin
     id 3 
     name ltibia
     direction 0.34202 -0.939693 0   
     length 6.73476   
     axis 0 0 20   XYZ
    dof rx
    limits (-10.0 170.0)
  end
  begin
     id 4 
     name lfoot
     direction 0.0718085 -0.197292 0.977711   
     length 1.52607   
     axis -90 7.62852e-016 20   XYZ
    dof rx rz
    limits (-45.0 90.0)
           (-70.0 20.0)
  end
  begin
     id 5 
     name ltoes
     direction 1.53553e-011 -4.22024e-011 1   
     length 0.777832   
     axis -90 7.62852e-016 20   XYZ
    dof rx
    limits (-90.0 20.0)
  end
  begin
     id 6 
     name rhipjoint
     direction -0.727419 -0.612432 0.309497   
     length 2.50079  
     axis 0 0 0  XYZ 
  end
  begin
     id 7 
     name rfemur
     direction -0.34202 -0.939693 0   
     length 6.51665   
     axis 0 0 -20   XYZ
    dof rx ry rz
    limits (-160.0 20.0)
           (-70.0 70.0)
           (-70.0 60.0)
  end
  begin
     id 8 
     name rtibia
     direction -0.34202 -0.939693 0   
     length 6.48919   
     axis 0 0 -20   XYZ
    dof rx
    limits (-10.0 170.0)
 end
 begin
     id 9 
     name rfoot
     direction -0.112205 -0.308282 0.944655   
     length 1.68717  
     axis -90 -7.62852e-016 -20   XYZ
    dof rx rz
    limits (-45.0 90.0)
           (-20.0 70.0)
  end
  begin
     id 10 
     name rtoes
     direction -1.53583e-011 -4.21993e-011 1   
     length 0.846859   
     axis -90 -7.62852e-016 -20   XYZ
    dof rx
    limits (-90.0 20.0)
  end
  begin
     id 11 
     name lowerback
     direction -0.00119603 0.996364 -0.0851956   
     length 1.67242   
     axis 0 0 0   XYZ
    dof rx ry rz
    limits (-20.0 45.0)
           (-30.0 30.0)
           (-30.0 30.0)
  end
  begin
     id 12 
     name upperback
     direction -0.00531001 0.998318 0.0577248   
     length 1.64819   
     axis 0 0 0   XYZ
    dof rx ry rz
    limits (-20.0 45.0)
           (-30.0 30.0)
           (-30.0 30.0)
  end
  begin
     id 13 
     name thorax
     direction -0.00653676 0.995132 0.0983291   
     length 1.67429   
     axis 0 0 0   XYZ
    dof rx ry rz
    limits (-20.0 45.0)
           (-30.0 30.0)
           (-30.0 30.0)
  end
  begin
     id 14 
     name lowerneck
     direction 0.0141424 0.999886 0.00525412   
     length 1.59623   
     axis 0 0 0   XYZ
    dof rx ry rz
    limits (-20.0 45.0)
           (-30.0 30.0)
           (-30.0 30.0)
  end
  begin
     id 15 
     name upperneck
     direction -0.0640064 0.987178 -0.146232   
     length 1.59576   
     axis 0 0 0   XYZ
    dof rx ry rz
    limits (-20.0 45.0)
           (-30.0 30.0)
           (-30.0 30.0)
  end
  begin
     id 16
     name head
     direction -0.0222942 0.998496 -0.0500859  
     length 1.60959  
     axis 0 0 0   XYZ
    dof rx ry rz
    limits (-20.0 45.0)
           (-30.0 30.0)
           (-30.0 30.0)
  end
  begin
     id 17 
     name lclavicle
     direction 0.908549 0.392612 0.142806  
     length 2.80649  
     axis 0 0 0   XYZ
    dof ry rz
    limits (-20.0 10.0)
           (0.0 20.0)
  end
  begin
     id 18 
     name lhumerus
     direction 1 -4.48968e-011 1.08832e-028   
     length 4.2884   
     axis -180 -30 -90   XYZ
    dof rx ry rz
    limits (-60.0 90.0)
           (-90.0 90.0)
           (-90.0 90.0)
  end
  begin
     id 19
     name lradius
     direction 1 -4.48952e-011 -3.02642e-028   
     length 3.06552   
     axis -180 -30 -90   XYZ
    dof rx
    limits (-10.0 170.0)
  end
  begin
     id 20
     name lwrist
     direction 1 -4.49014e-011 1.58672e-027   
     length 1.53276   
     axis -1.65735e-015 90 90   XYZ
    dof ry
    limits (-180.0 0.0)
 end
  begin
     id 21 
     name lhand
     direction 1 -4.48928e-011 3.17344e-027   
     length 0.753045   
     axis -2.02492e-015 90 90   XYZ
    dof rx rz
    limits (-90.0 90.0)
           (-45.0 45.0)
  end
  begin
     id 22 
     name lfingers
     direction 1 -4.48958e-011 6.34687e-027   
     length 0.607124   
     axis -4.04985e-015 90 90   XYZ
    dof rx
    limits (0.0 90.0)
  end
  begin
     id 23
     name lthumb
     direction 0.707107 -6.34905e-011 0.707107   
     length 0.871712   
     axis -90 45 2.85299e-015   XYZ
    dof rx rz
    limits (-45.0 45.0)
           (-45.0 45.0)
  end
  begin
     id 24 
     name rclavicle
     direction -0.885098 0.45949 0.0739604   
     length 2.9478  
     axis 0 0 0   XYZ 
    dof ry rz
    limits (-10.0 20.0)
           (-20.0 0.0)
  end
  begin
     id 25 
     name rhumerus
     direction -1 -4.4898e-011 -2.61739e-027  
     length 4.52172   
     axis -180 30 90   XYZ
    dof rx ry rz
    limits (-90.0 60.0)
           (-90.0 90.0)
           (-90.0 90.0)
  end
  begin
     id 26 
     name rradius
     direction -1 -4.48945e-011 9.02552e-028   
     length 2.8914   
     axis -180 30 90   XYZ
    dof rx
    limits (-10.0 170.0)
  end
  begin
     id 27 
     name rwrist
     direction -1 -4.49018e-011 1.58672e-027   
     length 1.4457   
     axis -1.65735e-015 -90 -90   XYZ
    dof ry
    limits (-180.0 0.0)
  end
  begin
     id 28
     name rhand
     direction -1 -4.48825e-011 3.17344e-027   
     length 0.680541   
     axis -2.02492e-015 -90 -90   XYZ
    dof rx rz
    limits (-90.0 90.0)
           (-45.0 45.0)
  end
  begin
     id 29
     name rfingers
     direction -1 -4.49067e-011 6.34687e-027   
     length 0.54867   
     axis -4.04985e-015 -90 -90   XYZ
    dof rx
    limits (0.0 90.0)
  end
  begin
     id 30
     name rthumb
     direction -0.707107 -6.34833e-011 0.707107   
     length 0.787783   
     axis -90 -45 -2.85299e-015   XYZ
    dof rx rz
    limits (-45.0 45.0)
           (-45.0 45.0)
  end
:hierarchy
  begin
    root lhipjoint rhipjoint lowerback
    lhipjoint lfemur
    lfemur ltibia
    ltibia lfoot
    lfoot ltoes
    rhipjoint rfemur
    rfemur rtibia
    rtibia rfoot
    rfoot rtoes
    lowerback upperback
    upperback thorax
    thorax lowerneck lclavicle rclavicle
    lowerneck upperneck
    upperneck head
    lclavicle lhumerus
    lhumerus lradius
    lradius lwrist
    lwrist lhand lthumb
    lhand lfingers
    rclavicle rhumerus
    rhumerus rradius
    rradius rwrist
    rwrist rhand rthumb
    rhand rfingers
  end

#!OML:ASF E:\emotionWalksFemale\Project 1\Capture day 1\Session 1\Female1.ASF
:FULLY-SPECIFIED
:DEGREES
194
root 9.01463 15.4594 22.8202 187.659 3.39849 -178.473
lowerback 17.0889 0.0953776 1.92041
upperback -0.903703 0.567431 -0.219843
thorax -10.5998 0.182913 -1.48448
lowerneck -7.26768 -2.98817 -7.48198
upperneck -4.66888 -2.98423 7.66196
head 0.0396976 -1.19122 3.75615
rclavicle -5.31749e-015 2.68359e-015
rhumerus -37.5557 25.971 -5.20686
rradius 34.4453
rwrist 25.243
rhand 0.254573 -60.1551
rfingers 7.12502
rthumb 25.8342 -88.4206
lclavicle -5.31749e-015 2.68359e-015
lhumerus -41.4133 10.323 -17.7302
lradius 35.9963
lwrist -5.51752
lhand 17.736 -21.0453
lfingers 7.12502
lthumb 42.4204 3.40229
rfemur -14.2738 11.8673 24.8413
rtibia 23.3685
rfoot -17.9962 -25.0823
rtoes -6.02715
lfemur -20.0952 -8.59461 -19.5537
ltibia 32.0436
lfoot -24.6812 14.9664
ltoes -37.6586
195
root 9.01371 15.443 22.833 187.916 3.52711 -178.366
lowerback 17.5881 0.0653791 1.92908
upperback -0.950172 0.559445 -0.0788754
thorax -10.9402 0.180019 -1.3392
lowerneck -6.83327 -2.90247 -7.85293
upperneck -4.83456 -2.87621 7.74861
head -0.0909693 -1.14387 3.86857
rclavicle -2.60905e-015 -4.67144e-015
rhumerus -37.2633 25.497 -3.27544
rradius 34.4265
rwrist 25.5983
rhand 0.596766 -60.308
rfingers 7.12502
rthumb 26.1618 -88.5254
lclavicle -2.60905e-015 -4.67144e-015
lhumerus -41.8738 11.3326 -19.7283
lradius 35.8494
lwrist -6.19339
lhand 18.2574 -20.8279
lfingers 7.12502
lthumb 42.9084 3.45032
rfemur -15.0493 11.5041 24.9221
rtibia 24.1756
rfoot -18.1023 -24.6591
rtoes -6.46685
lfemur -20.9219 -7.71337 -19.4596
ltibia 32.9028
lfoot -24.8657 14.5838
ltoes -37.2893
196
root 9.01457 15.4254 22.8446 188.144 3.66844 -178.288
lowerback 18.1696 0.0852622 1.93142
upperback -1.1034 0.610469 0.01443
thorax -11.4464 0.198999 -1.2589
lowerneck -6.09336 -2.82315 -8.05643
upperneck -4.98435 -2.82969 7.70429
head -0.271595 -1.14179 3.90332
rclavicle 4.14963e-015 -4.96962e-015
rhumerus -37.2236 25.2119 -1.35497
rradius 34.4984
rwrist 25.9639
rhand 1.11065 -60.2414
rfingers 7.12502
rthumb 26.6537 -88.3849
lclavicle 4.14963e-015 -4.96962e-015
lhumerus -42.122 11.7511 -21.5242
lradius 35.853
lwrist -6.37757
lhand 18.2301 -20.4298
lfingers 7.12502
lthumb 42.8829 3.85743
rfemur -15.8426 11.2165 24.9734
rtibia 25.0648
rfoot -18.4091 -24.2219
rtoes -6.46915
lfemur -21.7257 -6.92489 -19.4049
ltibia 33.8096
lfoot -25.1914 14.4052
ltoes -37.3446
197
root 9.01196 15.4043 22.8571 188.455 3.71214 -178.267
lowerback 18.6427 0.147976 2.05719
upperback -1.17711 0.742653 0.0724688
thorax -11.7976 0.250737 -1.30952
lowerneck -5.89759 -2.9203 -8.31414
upperneck -4.84558 -2.99194 7.53484
head -0.246499 -1.2326 3.89093
rclavicle -7.31776e-015 1.63997e-015
rhumerus -37.5504 24.8838 0.53612
rradius 34.6262
rwrist 25.8317
rhand 1.12196 -60.3728
rfingers 7.12502
rthumb 26.6646 -88.5147
lclavicle -7.31776e-015 1.63997e-015
lhumerus -42.1194 12.1167 -22.9394
lradius 35.8569
lwrist -6.07287
lhand 17.9215 -20.0006
lfingers 7.12502
lthumb 42.5941 4.38721
rfemur -16.8001 10.8491 24.9488
rtibia 26.0486
rfoot -18.7407 -23.9045
rtoes -6.77009
lfemur -22.6262 -6.34598 -19.4065
ltibia 34.7449
lfoot -25.452 14.4163
ltoes -38.0307
198
root 9.00757 15.3814 22.8692 188.87 3.77758 -178.215
lowerback 18.8278 -0.0116523 1.98707
upperback -1.11778 0.522496 0.0680082
thorax -11.8455 0.153801 -1.21391
lowerneck -5.962 -2.70218 -7.90918
upperneck -4.84065 -2.71864 7.32327
head -0.267339 -1.10116 3.74278
rclavicle -1.39398e-014 1.2921e-015
rhumerus -37.0462 23.9227 2.13489
rradius 34.583
rwrist 25.5895
rhand 0.917841 -60.5295
rfingers 7.12502
rthumb 26.4692 -88.701
lclavicle -1.39398e-014 1.2921e-015
lhumerus -42.812 12.6012 -25.0757
lradius 35.8956
lwrist -5.70299
lhand 17.5298 -19.538
lfingers 7.12502
lthumb 42.2274 4.97543
rfemur -17.9231 10.4616 24.9459
rtibia 27.1352
rfoot -18.9338 -23.6771
rtoes -7.58379
lfemur -23.6297 -5.77991 -19.3719
ltibia 35.6887
lfoot -25.6591 14.3475
ltoes -38.7063
199
root 9.00413 15.3566 22.8814 189.272 3.91608 -178.167
lowerback 19.055 0.0234602 2.10069
upperback -1.08949 0.606261 0.0816269
thorax -11.9407 0.186917 -1.29009
lowerneck -5.49904 -2.68384 -8.22975
upperneck -5.22829 -2.686 7.52629
head -0.468782 -1.08298 3.88701
rclavicle 6.21202e-016 1.59028e-015
rhumerus -37.0691 22.7493 4.02255
rradius 34.6324
rwrist 25.4401
rhand 1.08909 -60.6527
rfingers 7.12502
rthumb 26.6331 -88.7994
lclavicle 6.21202e-016 1.59028e-015
lhumerus -43.3811 13.5138 -26.7148
lradius 36.132
lwrist -5.53736
lhand 16.9778 -18.7168
lfingers 7.12502
lthumb 41.71 5.96968
rfemur -19.0591 10.1488 24.9421
rtibia 28.2883
rfoot -19.1237 -23.4747
rtoes -8.58616
lfemur -24.6307 -5.16141 -19.3547
ltibia 36.6853
lfoot -25.9303 14.1693
ltoes -38.3131
200
root 9.00048 15.3303 22.8943 189.672 3.9899 -178.132
lowerback 19.4045 -0.185417 1.93382
upperback -1.18335 0.298591 0.0888512
thorax -12.2613 0.0491634 -1.10011
lowerneck -5.07853 -2.35931 -7.78341
upperneck -5.38146 -2.30751 7.31972
head -0.633602 -0.911993 3.7404
rclavicle 3.72721e-015 -3.08116e-015
rhumerus -36.4893 21.6758 5.59009
rradius 34.7459
rwrist 25.3703
rhand 1.22442 -61.1144
rfingers 7.12502
rthumb 26.7626 -89.2413
lclavicle 3.72721e-015 -3.08116e-015
lhumerus -44.118 13.41 -28.7513
lradius 36.1391
lwrist -4.82157
lhand 16.3086 -18.1536
lfingers 7.12502
lthumb 41.082 6.7367
rfemur -20.2231 9.83772 24.9405
rtibia 29.503
rfoot -19.4428 -23.3372
rtoes -9.5335
lfemur -25.6919 -4.56796 -19.3707
ltibia 37.7668
lfoot -26.2303 14.11
ltoes -37.5527
201
root 8.99689 15.3024 22.9075 190.141 4.08021 -178.101
lowerback 19.7139 -0.132346 2.04724
upperback -1.25515 0.409266 0.128196
thorax -12.5186 0.0910725 -1.15612
lowerneck -4.76385 -2.38037 -8.05826
upperneck -5.53357 -2.34891 7.27356
head -0.732602 -0.934473 3.78256
rclavicle -8.64713e-015 1.68967e-015
rhumerus -36.6752 20.5809 7.41652
rradius 34.7668
rwrist 25.276
rhand 0.940171 -61.5631
rfingers 7.12502
rthumb 26.4906 -89.7314
lclavicle -8.64713e-015 1.68967e-015
lhumerus -44.3216 13.7689 -29.8778
lradius 36.2879
lwrist -4.13188
lhand 15.5585 -18.1533
lfingers 7.12502
lthumb 40.3771 6.95783
rfemur -21.4917 9.52318 24.9222
rtibia 30.7656
rfoot -19.8782 -23.1613
rtoes -10.1622
lfemur -26.8547 -3.94757 -19.4158
ltibia 38.9028
lfoot -26.5934 14.0318
ltoes -37.1379
202
root 8.99241 15.2684 22.9238 190.613 4.18293 -178.094
lowerback 20.1746 -0.120033 2.09989
upperback -1.07361 0.465936 0.147481
thorax -12.574 0.12176 -1.18604
lowerneck -6.09033 -2.48517 -8.16205
upperneck -5.16375 -2.37214 7.21878
head -0.376369 -0.910324 3.76548
rclavicle -1.1281e-014 3.03147e-015
rhumerus -36.735 18.9332 9.10914
rradius 34.5914
rwrist 25.3151
rhand 0.533719 -61.816
rfingers 7.12502
rthumb 26.1015 90.0423
lclavicle -1.1281e-014 3.03147e-015
lhumerus -44.8541 14.4442 -31.0513
lradius 36.4395
lwrist -3.34496
lhand 14.8608 -17.8272
lfingers 7.12502
lthumb 39.7207 7.48248
rfemur -22.7926 9.16975 24.876
rtibia 32.0565
rfoot -20.395 -22.8284
rtoes -10.0295
lfemur -28.0474 -3.33856 -19.5071
ltibia 40.0614
lfoot -26.8207 13.953
ltoes -37.1559
203
root 8.98651 15.2321 22.9401 191.055 4.25065 -178.077
lowerback 20.8437 -0.154602 2.0815
upperback -1.2934 0.431148 0.153328
thorax -13.2162 0.0951198 -1.16348
lowerneck -5.99002 -2.36734 -7.94795
upperneck -4.94544 -2.26408 7.06262
head -0.337716 -0.871818 3.67046
rclavicle 1.52567e-014 -2.28602e-015
rhumerus -36.4131 18.1047 10.6593
rradius 34.2632
rwrist 25.5406
rhand 0.135696 -62.1291
rfingers 7.12502
rthumb 25.7203 90.4111
lclavicle 1.52567e-014 -2.28602e-015
lhumerus -45.2717 14.2806 -32.1773
lradius 36.7278
lwrist -2.70592
lhand 13.8349 -17.0497
lfingers 7.12502
lthumb 38.7538 8.54043
rfemur -24.0671 8.68707 24.8845
rtibia 33.3851
rfoot -20.7726 -22.4961
rtoes -10.4748
lfemur -29.2101 -2.82387 -19.588
ltibia 41.2237
lfoot -27.0538 13.9296
ltoes -36.7013
